<?xml version="1.0" encoding="UTF-8" standalone="no"?>
<!DOCTYPE svg PUBLIC "-//W3C//DTD SVG 1.1//EN"
 "http://www.w3.org/Graphics/SVG/1.1/DTD/svg11.dtd">
<!-- Generated by graphviz version 2.47.0 (20210316.0004)
 -->
<!-- Title: dependencies Pages: 1 -->
<svg width="504pt" height="211pt"
 viewBox="0.00 0.00 504.00 211.00" xmlns="http://www.w3.org/2000/svg" xmlns:xlink="http://www.w3.org/1999/xlink">
<g id="graph0" class="graph" transform="scale(1 1) rotate(0) translate(4 207)">
<title>dependencies</title>
<polygon fill="white" stroke="transparent" points="-4,4 -4,-207 500,-207 500,4 -4,4"/>
<text text-anchor="start" x="227.01" y="-42.4" font-family="Times-12" font-weight="bold" font-size="14.00">Legend</text>
<polygon fill="#ffffb3" stroke="transparent" points="14,-10 14,-30 34,-30 34,-10 14,-10"/>
<text text-anchor="start" x="37.63" y="-15.4" font-family="Times-12" font-size="14.00"> &#160;Declarations</text>
<polygon fill="#8dd3c7" stroke="transparent" points="127,-10 127,-30 147,-30 147,-10 127,-10"/>
<text text-anchor="start" x="150.73" y="-15.4" font-family="Times-12" font-size="14.00"> &#160;Module</text>
<polygon fill="#80b1d3" stroke="transparent" points="213,-10 213,-30 233,-30 233,-10 213,-10"/>
<text text-anchor="start" x="236.78" y="-15.4" font-family="Times-12" font-size="14.00"> &#160;Bootstrap</text>
<polygon fill="#fdb462" stroke="transparent" points="310,-10 310,-30 330,-30 330,-10 310,-10"/>
<text text-anchor="start" x="333.67" y="-15.4" font-family="Times-12" font-size="14.00"> &#160;Providers</text>
<polygon fill="#fb8072" stroke="transparent" points="406,-10 406,-30 426,-30 426,-10 406,-10"/>
<text text-anchor="start" x="429.73" y="-15.4" font-family="Times-12" font-size="14.00"> &#160;Exports</text>
<g id="clust1" class="cluster">
<title>cluster_EventsModule</title>
<polygon fill="none" stroke="black" stroke-dasharray="1,5" points="73,-70 73,-195 423,-195 423,-70 73,-70"/>
</g>
<g id="clust3" class="cluster">
<title>cluster_EventsModule_imports</title>
<polygon fill="none" stroke="black" points="237,-78 237,-130 415,-130 415,-78 237,-78"/>
</g>
<g id="clust6" class="cluster">
<title>cluster_EventsModule_providers</title>
<polygon fill="none" stroke="black" points="81,-78 81,-130 229,-130 229,-78 81,-78"/>
</g>
<!-- EventTicketTypesModule -->
<g id="node1" class="node">
<title>EventTicketTypesModule</title>
<polygon fill="#8dd3c7" stroke="black" points="407.18,-122 404.18,-126 383.18,-126 380.18,-122 244.82,-122 244.82,-86 407.18,-86 407.18,-122"/>
<text text-anchor="middle" x="326" y="-99.8" font-family="Times,serif" font-size="14.00">EventTicketTypesModule</text>
</g>
<!-- EventsModule -->
<g id="node2" class="node">
<title>EventsModule</title>
<polygon fill="#8dd3c7" stroke="black" points="288.65,-187 285.65,-191 264.65,-191 261.65,-187 191.35,-187 191.35,-151 288.65,-151 288.65,-187"/>
<text text-anchor="middle" x="240" y="-164.8" font-family="Times,serif" font-size="14.00">EventsModule</text>
</g>
<!-- EventTicketTypesModule&#45;&gt;EventsModule -->
<g id="edge1" class="edge">
<title>EventTicketTypesModule&#45;&gt;EventsModule</title>
<path fill="none" stroke="black" d="M266.87,-122.11C266.87,-122.11 266.87,-140.99 266.87,-140.99"/>
<polygon fill="black" stroke="black" points="263.37,-140.99 266.87,-150.99 270.37,-140.99 263.37,-140.99"/>
</g>
<!-- EventsService -->
<g id="node3" class="node">
<title>EventsService</title>
<ellipse fill="#fdb462" stroke="black" cx="155" cy="-104" rx="66.05" ry="18"/>
<text text-anchor="middle" x="155" y="-99.8" font-family="Times,serif" font-size="14.00">EventsService</text>
</g>
<!-- EventsService&#45;&gt;EventsModule -->
<g id="edge2" class="edge">
<title>EventsService&#45;&gt;EventsModule</title>
<path fill="none" stroke="black" d="M206.22,-115.62C206.22,-115.62 206.22,-140.85 206.22,-140.85"/>
<polygon fill="black" stroke="black" points="202.72,-140.85 206.22,-150.85 209.72,-140.85 202.72,-140.85"/>
</g>
</g>
</svg>
