<?xml version="1.0" encoding="UTF-8" standalone="no"?>
<!DOCTYPE svg PUBLIC "-//W3C//DTD SVG 1.1//EN"
 "http://www.w3.org/Graphics/SVG/1.1/DTD/svg11.dtd">
<!-- Generated by graphviz version 2.47.0 (20210316.0004)
 -->
<!-- Title: dependencies Pages: 1 -->
<svg width="504pt" height="211pt"
 viewBox="0.00 0.00 504.00 211.00" xmlns="http://www.w3.org/2000/svg" xmlns:xlink="http://www.w3.org/1999/xlink">
<g id="graph0" class="graph" transform="scale(1 1) rotate(0) translate(4 207)">
<title>dependencies</title>
<polygon fill="white" stroke="transparent" points="-4,4 -4,-207 500,-207 500,4 -4,4"/>
<text text-anchor="start" x="227.01" y="-42.4" font-family="Times-12" font-weight="bold" font-size="14.00">Legend</text>
<polygon fill="#ffffb3" stroke="transparent" points="14,-10 14,-30 34,-30 34,-10 14,-10"/>
<text text-anchor="start" x="37.63" y="-15.4" font-family="Times-12" font-size="14.00"> &#160;Declarations</text>
<polygon fill="#8dd3c7" stroke="transparent" points="127,-10 127,-30 147,-30 147,-10 127,-10"/>
<text text-anchor="start" x="150.73" y="-15.4" font-family="Times-12" font-size="14.00"> &#160;Module</text>
<polygon fill="#80b1d3" stroke="transparent" points="213,-10 213,-30 233,-30 233,-10 213,-10"/>
<text text-anchor="start" x="236.78" y="-15.4" font-family="Times-12" font-size="14.00"> &#160;Bootstrap</text>
<polygon fill="#fdb462" stroke="transparent" points="310,-10 310,-30 330,-30 330,-10 310,-10"/>
<text text-anchor="start" x="333.67" y="-15.4" font-family="Times-12" font-size="14.00"> &#160;Providers</text>
<polygon fill="#fb8072" stroke="transparent" points="406,-10 406,-30 426,-30 426,-10 406,-10"/>
<text text-anchor="start" x="429.73" y="-15.4" font-family="Times-12" font-size="14.00"> &#160;Exports</text>
<g id="clust1" class="cluster">
<title>cluster_TicketsModule</title>
<polygon fill="none" stroke="black" stroke-dasharray="1,5" points="88.5,-70 88.5,-195 407.5,-195 407.5,-70 88.5,-70"/>
</g>
<g id="clust6" class="cluster">
<title>cluster_TicketsModule_providers</title>
<polygon fill="none" stroke="black" points="96.5,-78 96.5,-130 399.5,-130 399.5,-78 96.5,-78"/>
</g>
<!-- EventsService -->
<g id="node1" class="node">
<title>EventsService</title>
<ellipse fill="#fdb462" stroke="black" cx="325.5" cy="-104" rx="66.05" ry="18"/>
<text text-anchor="middle" x="325.5" y="-99.8" font-family="Times,serif" font-size="14.00">EventsService</text>
</g>
<!-- TicketsModule -->
<g id="node3" class="node">
<title>TicketsModule</title>
<polygon fill="#8dd3c7" stroke="black" points="298.76,-187 295.76,-191 274.76,-191 271.76,-187 198.24,-187 198.24,-151 298.76,-151 298.76,-187"/>
<text text-anchor="middle" x="248.5" y="-164.8" font-family="Times,serif" font-size="14.00">TicketsModule</text>
</g>
<!-- EventsService&#45;&gt;TicketsModule -->
<g id="edge1" class="edge">
<title>EventsService&#45;&gt;TicketsModule</title>
<path fill="none" stroke="black" d="M279.05,-116.84C279.05,-116.84 279.05,-140.52 279.05,-140.52"/>
<polygon fill="black" stroke="black" points="275.55,-140.52 279.05,-150.52 282.55,-140.52 275.55,-140.52"/>
</g>
<!-- TicketsService -->
<g id="node2" class="node">
<title>TicketsService</title>
<ellipse fill="#fdb462" stroke="black" cx="172.5" cy="-104" rx="68.33" ry="18"/>
<text text-anchor="middle" x="172.5" y="-99.8" font-family="Times,serif" font-size="14.00">TicketsService</text>
</g>
<!-- TicketsService&#45;&gt;TicketsModule -->
<g id="edge2" class="edge">
<title>TicketsService&#45;&gt;TicketsModule</title>
<path fill="none" stroke="black" d="M219.52,-117.15C219.52,-117.15 219.52,-140.69 219.52,-140.69"/>
<polygon fill="black" stroke="black" points="216.02,-140.69 219.52,-150.69 223.02,-140.69 216.02,-140.69"/>
</g>
</g>
</svg>
