<?xml version="1.0" encoding="UTF-8" standalone="no"?>
<!DOCTYPE svg PUBLIC "-//W3C//DTD SVG 1.1//EN"
 "http://www.w3.org/Graphics/SVG/1.1/DTD/svg11.dtd">
<!-- Generated by graphviz version 2.47.0 (20210316.0004)
 -->
<!-- Title: dependencies Pages: 1 -->
<svg width="504pt" height="211pt"
 viewBox="0.00 0.00 504.00 211.00" xmlns="http://www.w3.org/2000/svg" xmlns:xlink="http://www.w3.org/1999/xlink">
<g id="graph0" class="graph" transform="scale(1 1) rotate(0) translate(4 207)">
<title>dependencies</title>
<polygon fill="white" stroke="transparent" points="-4,4 -4,-207 500,-207 500,4 -4,4"/>
<text text-anchor="start" x="227.01" y="-42.4" font-family="Times-12" font-weight="bold" font-size="14.00">Legend</text>
<polygon fill="#ffffb3" stroke="transparent" points="14,-10 14,-30 34,-30 34,-10 14,-10"/>
<text text-anchor="start" x="37.63" y="-15.4" font-family="Times-12" font-size="14.00"> &#160;Declarations</text>
<polygon fill="#8dd3c7" stroke="transparent" points="127,-10 127,-30 147,-30 147,-10 127,-10"/>
<text text-anchor="start" x="150.73" y="-15.4" font-family="Times-12" font-size="14.00"> &#160;Module</text>
<polygon fill="#80b1d3" stroke="transparent" points="213,-10 213,-30 233,-30 233,-10 213,-10"/>
<text text-anchor="start" x="236.78" y="-15.4" font-family="Times-12" font-size="14.00"> &#160;Bootstrap</text>
<polygon fill="#fdb462" stroke="transparent" points="310,-10 310,-30 330,-30 330,-10 310,-10"/>
<text text-anchor="start" x="333.67" y="-15.4" font-family="Times-12" font-size="14.00"> &#160;Providers</text>
<polygon fill="#fb8072" stroke="transparent" points="406,-10 406,-30 426,-30 426,-10 406,-10"/>
<text text-anchor="start" x="429.73" y="-15.4" font-family="Times-12" font-size="14.00"> &#160;Exports</text>
<g id="clust1" class="cluster">
<title>cluster_EventTicketTypesModule</title>
<polygon fill="none" stroke="black" stroke-dasharray="1,5" points="46,-70 46,-195 450,-195 450,-70 46,-70"/>
</g>
<g id="clust6" class="cluster">
<title>cluster_EventTicketTypesModule_providers</title>
<polygon fill="none" stroke="black" points="54,-78 54,-130 442,-130 442,-78 54,-78"/>
</g>
<!-- EventTicketTypesService -->
<g id="node1" class="node">
<title>EventTicketTypesService</title>
<ellipse fill="#fdb462" stroke="black" cx="323" cy="-104" rx="110.57" ry="18"/>
<text text-anchor="middle" x="323" y="-99.8" font-family="Times,serif" font-size="14.00">EventTicketTypesService</text>
</g>
<!-- EventTicketTypesModule -->
<g id="node3" class="node">
<title>EventTicketTypesModule</title>
<polygon fill="#8dd3c7" stroke="black" points="310.18,-187 307.18,-191 286.18,-191 283.18,-187 147.82,-187 147.82,-151 310.18,-151 310.18,-187"/>
<text text-anchor="middle" x="229" y="-164.8" font-family="Times,serif" font-size="14.00">EventTicketTypesModule</text>
</g>
<!-- EventTicketTypesService&#45;&gt;EventTicketTypesModule -->
<g id="edge1" class="edge">
<title>EventTicketTypesService&#45;&gt;EventTicketTypesModule</title>
<path fill="none" stroke="black" d="M261.15,-119.08C261.15,-119.08 261.15,-140.76 261.15,-140.76"/>
<polygon fill="black" stroke="black" points="257.65,-140.76 261.15,-150.76 264.65,-140.76 257.65,-140.76"/>
</g>
<!-- EventsService -->
<g id="node2" class="node">
<title>EventsService</title>
<ellipse fill="#fdb462" stroke="black" cx="128" cy="-104" rx="66.05" ry="18"/>
<text text-anchor="middle" x="128" y="-99.8" font-family="Times,serif" font-size="14.00">EventsService</text>
</g>
<!-- EventsService&#45;&gt;EventTicketTypesModule -->
<g id="edge2" class="edge">
<title>EventsService&#45;&gt;EventTicketTypesModule</title>
<path fill="none" stroke="black" d="M171.09,-117.78C171.09,-117.78 171.09,-140.55 171.09,-140.55"/>
<polygon fill="black" stroke="black" points="167.59,-140.55 171.09,-150.55 174.59,-140.55 167.59,-140.55"/>
</g>
</g>
</svg>
