<?xml version="1.0" encoding="UTF-8" standalone="no"?>
<!DOCTYPE svg PUBLIC "-//W3C//DTD SVG 1.1//EN"
 "http://www.w3.org/Graphics/SVG/1.1/DTD/svg11.dtd">
<!-- Generated by graphviz version 2.47.0 (20210316.0004)
 -->
<!-- Title: dependencies Pages: 1 -->
<svg width="1314pt" height="436pt"
 viewBox="0.00 0.00 1314.00 436.00" xmlns="http://www.w3.org/2000/svg" xmlns:xlink="http://www.w3.org/1999/xlink">
<g id="graph0" class="graph" transform="scale(1 1) rotate(0) translate(4 432)">
<title>dependencies</title>
<polygon fill="white" stroke="transparent" points="-4,4 -4,-432 1310,-432 1310,4 -4,4"/>
<text text-anchor="start" x="632.01" y="-42.4" font-family="Times-12" font-weight="bold" font-size="14.00">Legend</text>
<polygon fill="#ffffb3" stroke="transparent" points="419,-10 419,-30 439,-30 439,-10 419,-10"/>
<text text-anchor="start" x="442.63" y="-15.4" font-family="Times-12" font-size="14.00"> &#160;Declarations</text>
<polygon fill="#8dd3c7" stroke="transparent" points="532,-10 532,-30 552,-30 552,-10 532,-10"/>
<text text-anchor="start" x="555.73" y="-15.4" font-family="Times-12" font-size="14.00"> &#160;Module</text>
<polygon fill="#80b1d3" stroke="transparent" points="618,-10 618,-30 638,-30 638,-10 618,-10"/>
<text text-anchor="start" x="641.78" y="-15.4" font-family="Times-12" font-size="14.00"> &#160;Bootstrap</text>
<polygon fill="#fdb462" stroke="transparent" points="715,-10 715,-30 735,-30 735,-10 715,-10"/>
<text text-anchor="start" x="738.67" y="-15.4" font-family="Times-12" font-size="14.00"> &#160;Providers</text>
<polygon fill="#fb8072" stroke="transparent" points="811,-10 811,-30 831,-30 831,-10 811,-10"/>
<text text-anchor="start" x="834.73" y="-15.4" font-family="Times-12" font-size="14.00"> &#160;Exports</text>
<g id="clust7" class="cluster">
<title>cluster_AuthModule</title>
<polygon fill="none" stroke="black" stroke-dasharray="1,5" points="1006,-146 1006,-420 1298,-420 1298,-146 1006,-146"/>
</g>
<g id="clust12" class="cluster">
<title>cluster_AuthModule_providers</title>
<polygon fill="none" stroke="black" points="1014,-154 1014,-206 1290,-206 1290,-154 1014,-154"/>
</g>
<g id="clust9" class="cluster">
<title>cluster_AuthModule_imports</title>
<polygon fill="none" stroke="black" points="1014,-230 1014,-282 1122,-282 1122,-230 1014,-230"/>
</g>
<g id="clust10" class="cluster">
<title>cluster_AuthModule_exports</title>
<polygon fill="none" stroke="black" points="1047,-360 1047,-412 1153,-412 1153,-360 1047,-360"/>
</g>
<g id="clust1" class="cluster">
<title>cluster_AppModule</title>
<polygon fill="none" stroke="black" stroke-dasharray="1,5" points="296,-222 296,-347 937,-347 937,-222 296,-222"/>
</g>
<g id="clust6" class="cluster">
<title>cluster_AppModule_providers</title>
<polygon fill="none" stroke="black" points="799,-230 799,-282 929,-282 929,-230 799,-230"/>
</g>
<g id="clust3" class="cluster">
<title>cluster_AppModule_imports</title>
<polygon fill="none" stroke="black" points="304,-230 304,-282 791,-282 791,-230 304,-230"/>
</g>
<g id="clust31" class="cluster">
<title>cluster_PrismaModule</title>
<polygon fill="none" stroke="black" stroke-dasharray="1,5" points="708,-146 708,-214 998,-214 998,-146 708,-146"/>
</g>
<g id="clust34" class="cluster">
<title>cluster_PrismaModule_exports</title>
<polygon fill="none" stroke="black" points="716,-154 716,-206 832,-206 832,-154 716,-154"/>
</g>
<g id="clust36" class="cluster">
<title>cluster_PrismaModule_providers</title>
<polygon fill="none" stroke="black" points="840,-154 840,-206 990,-206 990,-154 840,-154"/>
</g>
<g id="clust19" class="cluster">
<title>cluster_EventsModule</title>
<polygon fill="none" stroke="black" stroke-dasharray="1,5" points="270,-70 270,-214 464,-214 464,-70 270,-70"/>
</g>
<g id="clust21" class="cluster">
<title>cluster_EventsModule_imports</title>
<polygon fill="none" stroke="black" points="278,-154 278,-206 456,-206 456,-154 278,-154"/>
</g>
<g id="clust24" class="cluster">
<title>cluster_EventsModule_providers</title>
<polygon fill="none" stroke="black" points="308,-78 308,-130 456,-130 456,-78 308,-78"/>
</g>
<g id="clust37" class="cluster">
<title>cluster_TicketsModule</title>
<polygon fill="none" stroke="black" stroke-dasharray="1,5" points="532,-146 532,-214 700,-214 700,-146 532,-146"/>
</g>
<g id="clust42" class="cluster">
<title>cluster_TicketsModule_providers</title>
<polygon fill="none" stroke="black" points="540,-154 540,-206 692,-206 692,-154 540,-154"/>
</g>
<g id="clust13" class="cluster">
<title>cluster_CategoriesModule</title>
<polygon fill="none" stroke="black" stroke-dasharray="1,5" points="68,-146 68,-214 262,-214 262,-146 68,-146"/>
</g>
<g id="clust18" class="cluster">
<title>cluster_CategoriesModule_providers</title>
<polygon fill="none" stroke="black" points="76,-154 76,-206 254,-206 254,-154 76,-154"/>
</g>
<g id="clust25" class="cluster">
<title>cluster_EventTicketTypesModule</title>
<polygon fill="none" stroke="black" stroke-dasharray="1,5" points="8,-70 8,-138 262,-138 262,-70 8,-70"/>
</g>
<g id="clust30" class="cluster">
<title>cluster_EventTicketTypesModule_providers</title>
<polygon fill="none" stroke="black" points="16,-78 16,-130 254,-130 254,-78 16,-78"/>
</g>
<!-- AuthModule -->
<g id="node1" class="node">
<title>AuthModule</title>
<polygon fill="#8dd3c7" stroke="black" points="1143.55,-339 1140.55,-343 1119.55,-343 1116.55,-339 1056.45,-339 1056.45,-303 1143.55,-303 1143.55,-339"/>
<text text-anchor="middle" x="1100" y="-316.8" font-family="Times,serif" font-size="14.00">AuthModule</text>
</g>
<!-- AppModule -->
<g id="node7" class="node">
<title>AppModule</title>
<polygon fill="#8dd3c7" stroke="black" points="775.66,-339 772.66,-343 751.66,-343 748.66,-339 692.34,-339 692.34,-303 775.66,-303 775.66,-339"/>
<text text-anchor="middle" x="734" y="-316.8" font-family="Times,serif" font-size="14.00">AppModule</text>
</g>
<!-- AuthModule&#45;&gt;AppModule -->
<g id="edge1" class="edge">
<title>AuthModule&#45;&gt;AppModule</title>
<path fill="none" stroke="black" d="M1056.22,-330C1056.22,-330 785.86,-330 785.86,-330"/>
<polygon fill="black" stroke="black" points="785.86,-326.5 775.86,-330 785.86,-333.5 785.86,-326.5"/>
</g>
<!-- AuthService  -->
<g id="node9" class="node">
<title>AuthService </title>
<polygon fill="#fb8072" stroke="black" points="1144.98,-404 1055.02,-404 1055.02,-368 1144.98,-368 1144.98,-404"/>
<text text-anchor="middle" x="1100" y="-381.8" font-family="Times,serif" font-size="14.00">AuthService </text>
</g>
<!-- AuthModule&#45;&gt;AuthService  -->
<g id="edge9" class="edge">
<title>AuthModule&#45;&gt;AuthService </title>
<path fill="none" stroke="black" stroke-dasharray="5,2" d="M1100,-339.11C1100,-339.11 1100,-357.99 1100,-357.99"/>
<polygon fill="black" stroke="black" points="1096.5,-357.99 1100,-367.99 1103.5,-357.99 1096.5,-357.99"/>
</g>
<!-- CategoriesModule -->
<g id="node2" class="node">
<title>CategoriesModule</title>
<polygon fill="#8dd3c7" stroke="black" points="431.92,-274 428.92,-278 407.92,-278 404.92,-274 312.08,-274 312.08,-238 431.92,-238 431.92,-274"/>
<text text-anchor="middle" x="372" y="-251.8" font-family="Times,serif" font-size="14.00">CategoriesModule</text>
</g>
<!-- CategoriesModule&#45;&gt;AppModule -->
<g id="edge2" class="edge">
<title>CategoriesModule&#45;&gt;AppModule</title>
<path fill="none" stroke="black" d="M372,-274.29C372,-296.21 372,-330 372,-330 372,-330 682.12,-330 682.12,-330"/>
<polygon fill="black" stroke="black" points="682.12,-333.5 692.12,-330 682.12,-326.5 682.12,-333.5"/>
</g>
<!-- EventsModule -->
<g id="node3" class="node">
<title>EventsModule</title>
<polygon fill="#8dd3c7" stroke="black" points="547.65,-274 544.65,-278 523.65,-278 520.65,-274 450.35,-274 450.35,-238 547.65,-238 547.65,-274"/>
<text text-anchor="middle" x="499" y="-251.8" font-family="Times,serif" font-size="14.00">EventsModule</text>
</g>
<!-- EventsModule&#45;&gt;AppModule -->
<g id="edge3" class="edge">
<title>EventsModule&#45;&gt;AppModule</title>
<path fill="none" stroke="black" d="M499,-274.11C499,-293.34 499,-321 499,-321 499,-321 682.26,-321 682.26,-321"/>
<polygon fill="black" stroke="black" points="682.26,-324.5 692.26,-321 682.26,-317.5 682.26,-324.5"/>
</g>
<!-- PrismaModule -->
<g id="node4" class="node">
<title>PrismaModule</title>
<polygon fill="#8dd3c7" stroke="black" points="783.43,-274 780.43,-278 759.43,-278 756.43,-274 684.57,-274 684.57,-238 783.43,-238 783.43,-274"/>
<text text-anchor="middle" x="734" y="-251.8" font-family="Times,serif" font-size="14.00">PrismaModule</text>
</g>
<!-- PrismaModule&#45;&gt;AppModule -->
<g id="edge4" class="edge">
<title>PrismaModule&#45;&gt;AppModule</title>
<path fill="none" stroke="black" d="M734,-274.11C734,-274.11 734,-292.99 734,-292.99"/>
<polygon fill="black" stroke="black" points="730.5,-292.99 734,-302.99 737.5,-292.99 730.5,-292.99"/>
</g>
<!-- PrismaService  -->
<g id="node16" class="node">
<title>PrismaService </title>
<polygon fill="#fb8072" stroke="black" points="824.36,-198 723.64,-198 723.64,-162 824.36,-162 824.36,-198"/>
<text text-anchor="middle" x="774" y="-175.8" font-family="Times,serif" font-size="14.00">PrismaService </text>
</g>
<!-- PrismaModule&#45;&gt;PrismaService  -->
<g id="edge17" class="edge">
<title>PrismaModule&#45;&gt;PrismaService </title>
<path fill="none" stroke="black" stroke-dasharray="5,2" d="M743.62,-237.99C743.62,-237.99 743.62,-208.15 743.62,-208.15"/>
<polygon fill="black" stroke="black" points="747.12,-208.15 743.62,-198.15 740.12,-208.15 747.12,-208.15"/>
</g>
<!-- TicketsModule -->
<g id="node5" class="node">
<title>TicketsModule</title>
<polygon fill="#8dd3c7" stroke="black" points="666.26,-274 663.26,-278 642.26,-278 639.26,-274 565.74,-274 565.74,-238 666.26,-238 666.26,-274"/>
<text text-anchor="middle" x="616" y="-251.8" font-family="Times,serif" font-size="14.00">TicketsModule</text>
</g>
<!-- TicketsModule&#45;&gt;AppModule -->
<g id="edge5" class="edge">
<title>TicketsModule&#45;&gt;AppModule</title>
<path fill="none" stroke="black" d="M616,-274.03C616,-290.4 616,-312 616,-312 616,-312 682.07,-312 682.07,-312"/>
<polygon fill="black" stroke="black" points="682.07,-315.5 692.07,-312 682.07,-308.5 682.07,-315.5"/>
</g>
<!-- UsersModule -->
<g id="node6" class="node">
<title>UsersModule</title>
<polygon fill="#8dd3c7" stroke="black" points="1113.92,-274 1110.92,-278 1089.92,-278 1086.92,-274 1022.08,-274 1022.08,-238 1113.92,-238 1113.92,-274"/>
<text text-anchor="middle" x="1068" y="-251.8" font-family="Times,serif" font-size="14.00">UsersModule</text>
</g>
<!-- UsersModule&#45;&gt;AuthModule -->
<g id="edge8" class="edge">
<title>UsersModule&#45;&gt;AuthModule</title>
<path fill="none" stroke="black" d="M1084.97,-274.11C1084.97,-274.11 1084.97,-292.99 1084.97,-292.99"/>
<polygon fill="black" stroke="black" points="1081.47,-292.99 1084.97,-302.99 1088.47,-292.99 1081.47,-292.99"/>
</g>
<!-- UsersModule&#45;&gt;AppModule -->
<g id="edge6" class="edge">
<title>UsersModule&#45;&gt;AppModule</title>
<path fill="none" stroke="black" d="M1038.78,-274.11C1038.78,-293.34 1038.78,-321 1038.78,-321 1038.78,-321 785.74,-321 785.74,-321"/>
<polygon fill="black" stroke="black" points="785.74,-317.5 775.74,-321 785.74,-324.5 785.74,-317.5"/>
</g>
<!-- AppService -->
<g id="node8" class="node">
<title>AppService</title>
<ellipse fill="#fdb462" stroke="black" cx="864" cy="-256" rx="56.74" ry="18"/>
<text text-anchor="middle" x="864" y="-251.8" font-family="Times,serif" font-size="14.00">AppService</text>
</g>
<!-- AppService&#45;&gt;AppModule -->
<g id="edge7" class="edge">
<title>AppService&#45;&gt;AppModule</title>
<path fill="none" stroke="black" d="M864,-274.03C864,-290.4 864,-312 864,-312 864,-312 785.85,-312 785.85,-312"/>
<polygon fill="black" stroke="black" points="785.85,-308.5 775.85,-312 785.85,-315.5 785.85,-308.5"/>
</g>
<!-- AuthService -->
<g id="node10" class="node">
<title>AuthService</title>
<ellipse fill="#fdb462" stroke="black" cx="1223" cy="-180" rx="59.11" ry="18"/>
<text text-anchor="middle" x="1223" y="-175.8" font-family="Times,serif" font-size="14.00">AuthService</text>
</g>
<!-- AuthService&#45;&gt;AuthModule -->
<g id="edge10" class="edge">
<title>AuthService&#45;&gt;AuthModule</title>
<path fill="none" stroke="black" d="M1223,-198.14C1223,-236.23 1223,-321 1223,-321 1223,-321 1153.71,-321 1153.71,-321"/>
<polygon fill="black" stroke="black" points="1153.71,-317.5 1143.71,-321 1153.71,-324.5 1153.71,-317.5"/>
</g>
<!-- UsersService -->
<g id="node11" class="node">
<title>UsersService</title>
<ellipse fill="#fdb462" stroke="black" cx="1084" cy="-180" rx="61.95" ry="18"/>
<text text-anchor="middle" x="1084" y="-175.8" font-family="Times,serif" font-size="14.00">UsersService</text>
</g>
<!-- UsersService&#45;&gt;AuthModule -->
<g id="edge11" class="edge">
<title>UsersService&#45;&gt;AuthModule</title>
<path fill="none" stroke="black" d="M1128.74,-192.51C1128.74,-192.51 1128.74,-292.59 1128.74,-292.59"/>
<polygon fill="black" stroke="black" points="1125.24,-292.59 1128.74,-302.59 1132.24,-292.59 1125.24,-292.59"/>
</g>
<!-- UsersService&#45;&gt;UsersModule -->
<g id="edge22" class="edge">
<title>UsersService&#45;&gt;UsersModule</title>
<path fill="none" stroke="black" d="M1068,-197.63C1068,-197.63 1068,-227.94 1068,-227.94"/>
<polygon fill="black" stroke="black" points="1064.5,-227.94 1068,-237.94 1071.5,-227.94 1064.5,-227.94"/>
</g>
<!-- CategoriesService -->
<g id="node12" class="node">
<title>CategoriesService</title>
<ellipse fill="#fdb462" stroke="black" cx="165" cy="-180" rx="81.07" ry="18"/>
<text text-anchor="middle" x="165" y="-175.8" font-family="Times,serif" font-size="14.00">CategoriesService</text>
</g>
<!-- CategoriesService&#45;&gt;CategoriesModule -->
<g id="edge12" class="edge">
<title>CategoriesService&#45;&gt;CategoriesModule</title>
<path fill="none" stroke="black" d="M165,-198.01C165,-220.49 165,-256 165,-256 165,-256 302.13,-256 302.13,-256"/>
<polygon fill="black" stroke="black" points="302.13,-259.5 312.13,-256 302.13,-252.5 302.13,-259.5"/>
</g>
<!-- EventTicketTypesModule -->
<g id="node13" class="node">
<title>EventTicketTypesModule</title>
<polygon fill="#8dd3c7" stroke="black" points="448.18,-198 445.18,-202 424.18,-202 421.18,-198 285.82,-198 285.82,-162 448.18,-162 448.18,-198"/>
<text text-anchor="middle" x="367" y="-175.8" font-family="Times,serif" font-size="14.00">EventTicketTypesModule</text>
</g>
<!-- EventTicketTypesModule&#45;&gt;EventsModule -->
<g id="edge13" class="edge">
<title>EventTicketTypesModule&#45;&gt;EventsModule</title>
<path fill="none" stroke="black" d="M439.9,-198.01C439.9,-220.49 439.9,-256 439.9,-256 439.9,-256 440.93,-256 440.93,-256"/>
<polygon fill="black" stroke="black" points="440.19,-259.5 450.19,-256 440.19,-252.5 440.19,-259.5"/>
</g>
<!-- EventsService -->
<g id="node14" class="node">
<title>EventsService</title>
<ellipse fill="#fdb462" stroke="black" cx="382" cy="-104" rx="66.05" ry="18"/>
<text text-anchor="middle" x="382" y="-99.8" font-family="Times,serif" font-size="14.00">EventsService</text>
</g>
<!-- EventsService&#45;&gt;EventsModule -->
<g id="edge14" class="edge">
<title>EventsService&#45;&gt;EventsModule</title>
<path fill="none" stroke="black" d="M444.59,-110C465.06,-110 482.64,-110 482.64,-110 482.64,-110 482.64,-227.8 482.64,-227.8"/>
<polygon fill="black" stroke="black" points="479.14,-227.8 482.64,-237.8 486.14,-227.8 479.14,-227.8"/>
</g>
<!-- EventsService&#45;&gt;TicketsModule -->
<g id="edge19" class="edge">
<title>EventsService&#45;&gt;TicketsModule</title>
<path fill="none" stroke="black" d="M444.66,-98C479.18,-98 515.11,-98 515.11,-98 515.11,-98 515.11,-212 515.11,-212 515.11,-212 599.21,-212 599.21,-212 599.21,-212 599.21,-227.85 599.21,-227.85"/>
<polygon fill="black" stroke="black" points="595.71,-227.85 599.21,-237.85 602.71,-227.85 595.71,-227.85"/>
</g>
<!-- EventsService&#45;&gt;EventTicketTypesModule -->
<g id="edge16" class="edge">
<title>EventsService&#45;&gt;EventTicketTypesModule</title>
<path fill="none" stroke="black" d="M381.91,-122.01C381.91,-122.01 381.91,-151.85 381.91,-151.85"/>
<polygon fill="black" stroke="black" points="378.41,-151.85 381.91,-161.85 385.41,-151.85 378.41,-151.85"/>
</g>
<!-- EventTicketTypesService -->
<g id="node15" class="node">
<title>EventTicketTypesService</title>
<ellipse fill="#fdb462" stroke="black" cx="135" cy="-104" rx="110.57" ry="18"/>
<text text-anchor="middle" x="135" y="-99.8" font-family="Times,serif" font-size="14.00">EventTicketTypesService</text>
</g>
<!-- EventTicketTypesService&#45;&gt;EventTicketTypesModule -->
<g id="edge15" class="edge">
<title>EventTicketTypesService&#45;&gt;EventTicketTypesModule</title>
<path fill="none" stroke="black" d="M246.06,-104C276.27,-104 300.82,-104 300.82,-104 300.82,-104 300.82,-151.99 300.82,-151.99"/>
<polygon fill="black" stroke="black" points="297.32,-151.99 300.82,-161.99 304.32,-151.99 297.32,-151.99"/>
</g>
<!-- PrismaService -->
<g id="node17" class="node">
<title>PrismaService</title>
<ellipse fill="#fdb462" stroke="black" cx="915" cy="-180" rx="66.63" ry="18"/>
<text text-anchor="middle" x="915" y="-175.8" font-family="Times,serif" font-size="14.00">PrismaService</text>
</g>
<!-- PrismaService&#45;&gt;PrismaModule -->
<g id="edge18" class="edge">
<title>PrismaService&#45;&gt;PrismaModule</title>
<path fill="none" stroke="black" d="M884.4,-196.25C884.4,-209.14 884.4,-225 884.4,-225 884.4,-225 763.42,-225 763.42,-225 763.42,-225 763.42,-227.97 763.42,-227.97"/>
<polygon fill="black" stroke="black" points="759.92,-227.97 763.42,-237.97 766.92,-227.97 759.92,-227.97"/>
</g>
<!-- PrismaService&#45;&gt;UsersModule -->
<g id="edge21" class="edge">
<title>PrismaService&#45;&gt;UsersModule</title>
<path fill="none" stroke="black" d="M951.22,-195.38C951.22,-217.59 951.22,-256 951.22,-256 951.22,-256 1012.18,-256 1012.18,-256"/>
<polygon fill="black" stroke="black" points="1012.18,-259.5 1022.18,-256 1012.18,-252.5 1012.18,-259.5"/>
</g>
<!-- TicketsService -->
<g id="node18" class="node">
<title>TicketsService</title>
<ellipse fill="#fdb462" stroke="black" cx="616" cy="-180" rx="68.33" ry="18"/>
<text text-anchor="middle" x="616" y="-175.8" font-family="Times,serif" font-size="14.00">TicketsService</text>
</g>
<!-- TicketsService&#45;&gt;TicketsModule -->
<g id="edge20" class="edge">
<title>TicketsService&#45;&gt;TicketsModule</title>
<path fill="none" stroke="black" d="M632.79,-197.63C632.79,-197.63 632.79,-227.94 632.79,-227.94"/>
<polygon fill="black" stroke="black" points="629.29,-227.94 632.79,-237.94 636.29,-227.94 629.29,-227.94"/>
</g>
</g>
</svg>
